<svg width="11" height="20" viewBox="0 0 11 20" fill="none" xmlns="http://www.w3.org/2000/svg">
<path d="M10.5858 0.00416134L7.94737 0C4.98322 0 3.06766 1.9319 3.06766 4.92203V7.19141H0.414863C0.18563 7.19141 0 7.37409 0 7.59943V10.8875C0 11.1128 0.185842 11.2953 0.414863 11.2953H3.06766V19.5922C3.06766 19.8175 3.25329 20 3.48252 20H6.94366C7.17289 20 7.35852 19.8173 7.35852 19.5922V11.2953H10.4603C10.6895 11.2953 10.8751 11.1128 10.8751 10.8875L10.8764 7.59943C10.8764 7.49124 10.8326 7.38762 10.7549 7.31105C10.6772 7.23448 10.5714 7.19141 10.4613 7.19141H7.35852V5.26763C7.35852 4.34298 7.58267 3.87358 8.808 3.87358L10.5853 3.87295C10.8144 3.87295 11 3.69027 11 3.46514V0.411972C11 0.187052 10.8146 0.00457747 10.5858 0.00416134Z" fill="#5A5A5A"/>
</svg>
