<svg width="13" height="14" viewBox="0 0 13 14" fill="none" xmlns="http://www.w3.org/2000/svg">
<path d="M0.2231 6.96186C0.103837 3.7604 2.85426 0.801866 5.9975 0.763482C7.59952 0.624172 9.1581 1.25845 10.3705 2.29295C9.87316 2.85046 9.36714 3.40152 8.82664 3.91743C7.75933 3.25631 6.47429 2.75248 5.22689 3.19994C3.21495 3.78402 1.99652 6.20599 2.74106 8.2127C3.35764 10.3085 5.85796 11.4587 7.81751 10.5783C8.83217 10.2079 9.50115 9.25337 9.7947 8.22774C8.63182 8.20411 7.46867 8.21888 6.30579 8.18613C6.30289 7.48072 6.3 6.77799 6.30289 6.07258C8.24217 6.06963 10.1843 6.06372 12.1265 6.08144C12.2458 7.8098 11.9957 9.65949 10.8936 11.0467C9.38452 13.0268 6.59645 13.608 4.32834 12.8312C1.92122 12.0251 0.170709 9.55266 0.2231 6.96186Z" fill="#666666"/>
</svg>
