<svg width="10" height="16" viewBox="0 0 10 16" fill="none" xmlns="http://www.w3.org/2000/svg">
<path d="M8.78312 0.211465L6.78402 0.208252C4.53809 0.208252 3.08668 1.69991 3.08668 4.00866V5.7609H1.07667C0.90298 5.7609 0.762329 5.90195 0.762329 6.07594V8.61474C0.762329 8.78872 0.90314 8.92962 1.07667 8.92962H3.08668V15.3358C3.08668 15.5098 3.22733 15.6507 3.40102 15.6507H6.02351C6.1972 15.6507 6.33785 15.5096 6.33785 15.3358V8.92962H8.68802C8.86171 8.92962 9.00236 8.78872 9.00236 8.61474L9.00332 6.07594C9.00332 5.9924 8.97012 5.91239 8.91126 5.85327C8.8524 5.79415 8.77222 5.7609 8.68882 5.7609H6.33785V4.2755C6.33785 3.56156 6.50769 3.19913 7.43611 3.19913L8.7828 3.19865C8.95633 3.19865 9.09698 3.05759 9.09698 2.88377V0.526345C9.09698 0.352679 8.95649 0.211786 8.78312 0.211465Z" fill="#666666"/>
</svg>
