<svg width="6" height="6" viewBox="0 0 6 6" fill="none" xmlns="http://www.w3.org/2000/svg">
<path d="M1.90661 0.293701C2.48239 0.293701 3.0579 0.293701 3.63632 0.293701C3.63948 0.883691 3.64501 1.47663 3.64816 2.06635C4.22658 2.07226 4.80815 2.07521 5.38683 2.07816C5.38683 2.66815 5.38683 3.25492 5.38683 3.84491C4.80842 3.84786 4.22684 3.85082 3.64816 3.85377C3.64237 4.44671 3.63948 5.03643 3.63632 5.62937C3.0579 5.62642 2.47896 5.62937 1.90345 5.62937C1.89792 5.03643 1.89792 4.44671 1.89186 3.85672C1.31345 3.85055 0.731875 3.84786 0.153198 3.84464C0.153198 3.25465 0.153198 2.66789 0.153198 2.0779C0.731875 2.07494 1.31055 2.07199 1.89186 2.06609C1.89476 1.47663 1.90055 0.883691 1.90661 0.293701Z" fill="#666666"/>
</svg>
