<svg width="18" height="18" viewBox="0 0 18 18" fill="none" xmlns="http://www.w3.org/2000/svg">
<path fill-rule="evenodd" clip-rule="evenodd" d="M5.8125 0.5H12.1875C15.1211 0.5 17.5 2.87894 17.5 5.8125V12.1875C17.5 15.1211 15.1211 17.5 12.1875 17.5H5.8125C2.87894 17.5 0.5 15.1211 0.5 12.1875V5.8125C0.5 2.87894 2.87894 0.5 5.8125 0.5ZM12.1875 15.9062C14.2381 15.9062 15.9062 14.2381 15.9062 12.1875V5.8125C15.9062 3.76187 14.2381 2.09375 12.1875 2.09375H5.8125C3.76187 2.09375 2.09375 3.76187 2.09375 5.8125V12.1875C2.09375 14.2381 3.76187 15.9062 5.8125 15.9062H12.1875Z" fill="#666666"/>
</svg>
