<svg width="16" height="14" viewBox="0 0 16 14" fill="none" xmlns="http://www.w3.org/2000/svg">
<path d="M15.7916 2.1344C15.2185 2.39029 14.6019 2.56336 13.9553 2.64066C14.6155 2.24242 15.1221 1.61231 15.3613 0.860244C14.7435 1.22919 14.059 1.49684 13.331 1.64111C12.7478 1.01579 11.9169 0.625 10.9968 0.625C9.23147 0.625 7.7997 2.06647 7.7997 3.84377C7.7997 4.09605 7.82807 4.34162 7.88291 4.57734C5.22584 4.44316 2.86991 3.1618 1.29293 1.21383C1.01778 1.68912 0.859943 2.24242 0.859943 2.83222C0.859943 3.94867 1.42478 4.93429 2.28218 5.51136C1.75835 5.4948 1.26504 5.35005 0.834193 5.10832C0.833954 5.12201 0.833954 5.13569 0.833954 5.14913C0.833954 6.70871 1.93646 8.00951 3.39875 8.30501C3.13075 8.37894 2.84774 8.41807 2.55661 8.41807C2.35013 8.41807 2.15009 8.39814 1.95505 8.3607C2.36182 9.63918 3.54229 10.5698 4.94163 10.596C3.84724 11.4594 2.46887 11.9739 0.970575 11.9739C0.71307 11.9739 0.45795 11.9587 0.208313 11.9287C1.62244 12.8423 3.30338 13.375 5.10877 13.375C10.9894 13.375 14.2054 8.4704 14.2054 4.21656C14.2054 4.07709 14.2023 3.9381 14.1961 3.80032C14.8212 3.34663 15.3632 2.77989 15.7916 2.1344Z" fill="white"/>
</svg>
