<svg width="20" height="12" viewBox="0 0 20 12" fill="none" xmlns="http://www.w3.org/2000/svg">
<path fill-rule="evenodd" clip-rule="evenodd" d="M8.22509 5.39891C8.22509 5.39891 9.96515 5.27468 9.96515 3.28734C9.96515 1.30552 8.54195 0.333252 6.73511 0.333252H0.791687V11.4311H6.73457C6.73457 11.4311 10.365 11.5393 10.365 8.15314C10.3653 8.15314 10.521 5.39891 8.22509 5.39891ZM10.8154 7.41882C10.8154 7.39702 10.8211 3.1576 15.2018 3.1576C19.8275 3.1576 19.177 7.97481 19.177 7.97481H13.2617C13.2617 10.0325 15.2686 9.90279 15.2686 9.90279C17.1698 9.90279 17.1033 8.70939 17.1033 8.70939H19.1102C19.1102 11.8794 15.2018 11.6635 15.2018 11.6635C10.5153 11.6635 10.8154 7.41882 10.8154 7.41882ZM15.2465 4.78304C13.4839 4.78304 13.2393 6.48962 13.2393 6.48962H16.9865C16.9865 6.48962 17.0144 4.78304 15.2465 4.78304ZM6.73484 2.30431H3.41044V4.78304H6.52909C7.06847 4.78304 7.54106 4.61548 7.54106 3.45989C7.54106 2.30431 6.73484 2.30431 6.73484 2.30431ZM6.56829 9.46H3.41044V6.48962H6.73484C6.73484 6.48962 7.94147 6.47885 7.9358 8.01788C7.9358 9.31423 7.04089 9.44923 6.56829 9.46ZM12.7445 2.35316V0.986682H17.4591V2.35316H12.7445Z" fill="#666666"/>
</svg>
