<svg width="15" height="21" viewBox="0 0 15 21" fill="none" xmlns="http://www.w3.org/2000/svg">
<path d="M13.0546 2.81762C11.741 1.48267 9.92295 0.747437 7.93556 0.747437C4.89971 0.747437 3.03253 2.06473 2.00076 3.16973C0.72917 4.53153 0 6.33971 0 8.13076C0 10.3795 0.888595 12.1056 2.37667 12.7477C2.47657 12.791 2.57709 12.8129 2.67563 12.8129C2.98956 12.8129 3.2383 12.5954 3.32448 12.2466C3.3747 12.0465 3.4911 11.5529 3.5417 11.3386C3.65004 10.9154 3.56251 10.7118 3.32626 10.4171C2.89588 9.87809 2.69545 9.24065 2.69545 8.41107C2.69545 5.94694 4.42882 3.32807 7.64145 3.32807C10.1905 3.32807 11.774 4.86168 11.774 7.33037C11.774 8.88822 11.457 10.3309 10.8812 11.3929C10.4811 12.1308 9.77756 13.0105 8.69747 13.0105C8.2304 13.0105 7.81085 12.8074 7.5461 12.4533C7.29601 12.1186 7.21359 11.6862 7.31417 11.2356C7.4278 10.7264 7.58273 10.1953 7.73267 9.6819C8.00616 8.74415 8.26469 7.85847 8.26469 7.15183C8.26469 5.94316 7.56272 5.13104 6.51809 5.13104C5.19049 5.13104 4.15041 6.55838 4.15041 8.38051C4.15041 9.27415 4.37477 9.94253 4.47634 10.1992C4.3091 10.9493 3.31512 15.4087 3.12658 16.2497C3.01757 16.7405 2.36085 20.6177 3.44783 20.9269C4.66913 21.2743 5.76079 17.4981 5.87189 17.0714C5.96195 16.7244 6.27704 15.4122 6.47014 14.6055C7.0597 15.2067 8.00899 15.6131 8.93267 15.6131C10.674 15.6131 12.24 14.7836 13.3422 13.2776C14.4112 11.8169 15 9.78101 15 7.54519C15 5.79728 14.2909 4.07412 13.0546 2.81762Z" fill="#5A5A5A"/>
</svg>
