<svg width="20" height="18" viewBox="0 0 20 18" fill="none" xmlns="http://www.w3.org/2000/svg">
<path d="M20 2.62038C19.2644 2.95736 18.473 3.18527 17.6431 3.28706C18.4905 2.76263 19.1407 1.93285 19.4477 0.942477C18.6548 1.42834 17.7762 1.7808 16.842 1.97078C16.0935 1.14732 15.0271 0.63269 13.8462 0.63269C11.5805 0.63269 9.74295 2.53092 9.74295 4.87139C9.74295 5.20363 9.77937 5.527 9.84975 5.83742C6.43961 5.66072 3.41596 3.97333 1.39203 1.40811C1.03889 2.034 0.836317 2.76263 0.836317 3.53931C0.836317 5.00953 1.56125 6.30748 2.66165 7.0674C1.98935 7.04559 1.35622 6.85498 0.803268 6.53666C0.802962 6.55467 0.802962 6.57269 0.802962 6.59039C0.802962 8.64415 2.21794 10.3571 4.09468 10.7463C3.75073 10.8436 3.3875 10.8952 3.01386 10.8952C2.74886 10.8952 2.49212 10.8689 2.24181 10.8196C2.76385 12.5032 4.27889 13.7288 6.07485 13.7632C4.67028 14.9003 2.90125 15.5777 0.978304 15.5777C0.647817 15.5777 0.320389 15.5578 0 15.5183C1.81493 16.7214 3.97228 17.4228 6.28936 17.4228C13.8367 17.4228 17.9641 10.9641 17.9641 5.36231C17.9641 5.17865 17.9602 4.99563 17.9522 4.81418C18.7546 4.21673 19.4501 3.4704 20 2.62038Z" fill="#5A5A5A"/>
</svg>
