<svg width="20" height="19" viewBox="0 0 20 19" fill="none" xmlns="http://www.w3.org/2000/svg">
<path d="M0 5.71933C1.75987 4.29489 4.26211 1.16689 6.21375 1.16689C8.16305 1.16689 8.64182 3.50155 8.90775 5.61908C9.17718 7.73661 9.94295 12.369 10.9735 12.369C12.0064 12.369 14.3579 8.27113 14.2239 6.688C14.0921 5.10486 12.3887 5.34231 11.4524 5.7969C12.3135 2.63077 14.3016 0.947388 16.8438 0.947388C19.3871 0.947388 20 2.76902 20 5.00593C20 8.41069 13.1945 18.8421 9.08298 18.8421C6.53964 18.8421 5.90904 15.0413 5.39384 13.16C4.87734 11.2811 3.86334 6.35043 2.6776 6.03422C2.21757 5.95665 0.918894 7.00289 0.918894 7.00289L0 5.71933Z" fill="#5A5A5A"/>
</svg>
