<svg width="16" height="20" viewBox="0 0 16 20" fill="none" xmlns="http://www.w3.org/2000/svg">
<path fill-rule="evenodd" clip-rule="evenodd" d="M5.049 7.66514H3.87867L3.87687 3.62421L2.40618 0.151489H3.67224L4.4178 2.73135L5.1528 0.158177H6.43251L5.05003 3.62186L5.049 7.66514ZM6.46582 2.96795C6.38223 3.25275 6.33989 3.64772 6.33989 4.15382H6.34009V5.54967C6.34009 6.01193 6.3623 6.35836 6.40927 6.58924C6.45548 6.81985 6.5321 7.01771 6.64204 7.18021C6.75018 7.34243 6.90246 7.46473 7.09909 7.54573C7.29497 7.6275 7.53346 7.66645 7.81575 7.66645C8.06921 7.66645 8.29294 7.62005 8.48854 7.52485C8.68262 7.43095 8.84263 7.28369 8.96649 7.08659C9.09195 6.88769 9.17292 6.67542 9.21037 6.44633C9.2483 6.21772 9.26789 5.85812 9.26789 5.36905V4.03565C9.26789 3.64951 9.24775 3.36237 9.20595 3.1725C9.16492 2.98498 9.08905 2.8016 8.97601 2.62332C8.86608 2.44558 8.70634 2.30191 8.50068 2.19098C8.29501 2.08082 8.04907 2.02435 7.76237 2.02435C7.42173 2.02435 7.14089 2.11074 6.92157 2.28385C6.70218 2.45565 6.54997 2.68392 6.46582 2.96795ZM10.0978 7.13119C10.1548 7.271 10.2439 7.38372 10.3654 7.46935C10.4844 7.5529 10.6377 7.59551 10.8206 7.59551C10.9809 7.59551 11.123 7.55215 11.2464 7.46266C11.37 7.37366 11.4743 7.24108 11.5589 7.06363L11.5377 7.5001H12.7777V2.22835H11.8015V6.33126C11.8015 6.55312 11.618 6.73498 11.3942 6.73498C11.172 6.73498 10.988 6.55312 10.988 6.33126V2.22835H9.96937V5.78387C9.96937 6.23688 9.97737 6.53891 9.99102 6.69217C10.0056 6.84432 10.0405 6.99007 10.0978 7.13119ZM16 16.8747V11.2145C16 9.85679 14.8222 8.74525 13.3822 8.74525H2.61806C1.17757 8.74525 0 9.85651 0 11.2145V16.8747C0 18.2323 1.1775 19.3434 2.61806 19.3434H13.3819C14.8222 19.3434 16 18.2326 16 16.8747ZM9.58114 12.8786C9.31458 12.8786 9.09574 13.0584 9.09574 13.2781V16.2537C9.09574 16.4735 9.31458 16.6523 9.58114 16.6523C9.84978 16.6523 10.0686 16.4735 10.0686 16.2537V13.2779C10.0686 13.0584 9.84978 12.8786 9.58114 12.8786ZM13.5344 14.1898H12.48L12.4851 13.578C12.4851 13.3058 12.7084 13.0837 12.9816 13.0837H13.0492C13.3226 13.0837 13.5468 13.3059 13.5468 13.578L13.5344 14.1898ZM3.33574 17.4892L3.33526 11.5269L4.66946 11.5274V10.6436L1.11254 10.6382V11.5065L2.223 11.5099V17.4892H3.33574ZM6.22319 12.4153H7.33545V17.4876L6.44231 17.4863L6.44437 16.829C6.20436 17.3442 5.24494 17.7587 4.74478 17.3978C4.5088 17.2293 4.48743 16.949 4.46748 16.6875L4.46748 16.6874L4.46747 16.6873L4.46747 16.6872C4.46467 16.6505 4.46189 16.6141 4.45856 16.5785C4.44897 16.4714 4.45057 16.2806 4.45271 16.0265C4.45385 15.8913 4.45514 15.7381 4.45497 15.5701L4.45083 12.415H5.55716L5.56233 15.6207C5.56252 15.7872 5.5592 15.9272 5.55649 16.0414C5.55208 16.2277 5.54929 16.3455 5.56592 16.398C5.72413 16.8801 6.13084 16.618 6.22167 16.3711C6.23922 16.3223 6.23616 16.2192 6.23097 16.044C6.22754 15.9287 6.22319 15.782 6.22319 15.5991V12.4153ZM10.8947 16.061L10.8927 13.411C10.8916 12.4008 10.136 11.7959 9.1094 12.6131L9.11402 10.6428L8.00252 10.6446L7.99707 17.4448L8.9109 17.4313L8.99401 17.0075C10.1623 18.0796 10.8967 17.3455 10.8947 16.061ZM13.5424 15.7144L14.377 15.71C14.7571 17.9692 11.5657 18.3404 11.565 15.7139V14.1339C11.565 13.6597 11.6119 13.287 11.7066 13.0138C11.801 12.7403 11.9624 12.5371 12.174 12.3851C12.848 11.8989 14.1817 12.0495 14.3182 12.9996C14.3616 13.2999 14.3752 13.8249 14.3752 14.3498V15.0685H12.465V15.7289V16.2412V16.2927C12.465 16.5417 12.6707 16.7445 12.9212 16.7445H13.0846C13.3347 16.7445 13.5404 16.5417 13.5404 16.2927V15.8274C13.5406 15.8095 13.541 15.7922 13.5414 15.7758C13.5419 15.7539 13.5424 15.7334 13.5424 15.7144ZM7.31069 6.24819C7.31069 6.54636 7.53339 6.79014 7.80409 6.79014C8.0748 6.79014 8.29598 6.54664 8.29598 6.24819V3.44158C8.29598 3.14341 8.0748 2.89963 7.80409 2.89963C7.53339 2.89963 7.31069 3.14313 7.31069 3.44158V6.24819Z" fill="#5A5A5A"/>
</svg>
