<svg width="13" height="16" viewBox="0 0 13 16" fill="none" xmlns="http://www.w3.org/2000/svg">
<path d="M10.8088 1.80026C9.75555 0.773661 8.29797 0.208252 6.70457 0.208252C4.27057 0.208252 2.77356 1.22127 1.94633 2.07104C0.926837 3.11828 0.342224 4.5088 0.342224 5.88615C0.342224 7.6155 1.05466 8.94284 2.24772 9.43664C2.32782 9.46996 2.40841 9.48675 2.48742 9.48675C2.73911 9.48675 2.93854 9.31954 3.00763 9.05132C3.0479 8.89744 3.14122 8.51783 3.18179 8.35302C3.26865 8.02758 3.19847 7.87104 3.00906 7.64441C2.664 7.22987 2.50331 6.73967 2.50331 6.10171C2.50331 4.20676 3.89304 2.1928 6.46877 2.1928C8.5125 2.1928 9.78205 3.37217 9.78205 5.27063C9.78205 6.46864 9.52789 7.57812 9.06626 8.39481C8.74548 8.96228 8.1814 9.63872 7.31543 9.63872C6.94096 9.63872 6.60458 9.48254 6.39232 9.21026C6.19181 8.95286 6.12573 8.62035 6.20637 8.2738C6.29747 7.88227 6.42169 7.47384 6.54191 7.079C6.76117 6.35786 6.96845 5.67675 6.96845 5.13334C6.96845 4.20385 6.40565 3.57931 5.56811 3.57931C4.50371 3.57931 3.66982 4.67696 3.66982 6.07821C3.66982 6.76543 3.8497 7.27943 3.93113 7.4768C3.79705 8.05363 3.00013 11.483 2.84896 12.1297C2.76156 12.5072 2.23504 15.4888 3.10653 15.7266C4.0857 15.9937 4.96094 13.0898 5.05002 12.7617C5.12222 12.4948 5.37485 11.4857 5.52967 10.8653C6.00235 11.3276 6.76344 11.6402 7.50401 11.6402C8.9001 11.6402 10.1556 11.0023 11.0394 9.84416C11.8965 8.72086 12.3685 7.15521 12.3685 5.43583C12.3685 4.09166 11.8 2.76652 10.8088 1.80026Z" fill="#666666"/>
</svg>
