<svg width="246" height="41" viewBox="0 0 246 41" fill="none" xmlns="http://www.w3.org/2000/svg">
<path d="M71.504 12.912V30H68.768V19.392L64.232 30H62.192L57.632 19.512V30H54.896V12.912H57.344L63.224 26.28L69.056 12.912H71.504ZM85.6306 24.096H77.2786C77.3426 25.392 77.6626 26.352 78.2386 26.976C78.8306 27.584 79.7026 27.888 80.8546 27.888C82.1826 27.888 83.4146 27.456 84.5506 26.592L85.4146 28.656C84.8386 29.12 84.1266 29.496 83.2786 29.784C82.4466 30.056 81.5986 30.192 80.7346 30.192C78.7506 30.192 77.1906 29.632 76.0546 28.512C74.9186 27.392 74.3506 25.856 74.3506 23.904C74.3506 22.672 74.5986 21.576 75.0946 20.616C75.5906 19.656 76.2866 18.912 77.1826 18.384C78.0786 17.84 79.0946 17.568 80.2306 17.568C81.8946 17.568 83.2066 18.112 84.1666 19.2C85.1426 20.272 85.6306 21.752 85.6306 23.64V24.096ZM80.3026 19.728C79.5026 19.728 78.8466 19.968 78.3346 20.448C77.8386 20.912 77.5186 21.592 77.3746 22.488H83.0146C82.9186 21.576 82.6386 20.888 82.1746 20.424C81.7266 19.96 81.1026 19.728 80.3026 19.728ZM99.7631 12.336V30H96.8111V28.056C96.4431 28.728 95.9151 29.256 95.2271 29.64C94.5391 30.008 93.7551 30.192 92.8751 30.192C91.8351 30.192 90.9071 29.928 90.0911 29.4C89.2751 28.872 88.6351 28.128 88.1711 27.168C87.7231 26.192 87.4991 25.08 87.4991 23.832C87.4991 22.584 87.7231 21.488 88.1711 20.544C88.6191 19.6 89.2511 18.872 90.0671 18.36C90.8831 17.832 91.8191 17.568 92.8751 17.568C93.7391 17.568 94.5071 17.752 95.1791 18.12C95.8671 18.472 96.3951 18.976 96.7631 19.632V12.336H99.7631ZM93.6671 27.84C94.6591 27.84 95.4271 27.496 95.9711 26.808C96.5311 26.12 96.8111 25.144 96.8111 23.88C96.8111 22.616 96.5391 21.64 95.9951 20.952C95.4511 20.264 94.6831 19.92 93.6911 19.92C92.6831 19.92 91.8991 20.264 91.3391 20.952C90.7951 21.624 90.5231 22.584 90.5231 23.832C90.5231 25.096 90.7951 26.08 91.3391 26.784C91.8991 27.488 92.6751 27.84 93.6671 27.84ZM103.03 17.88H106.006V30H103.03V17.88ZM106.174 12.384V15.336H102.838V12.384H106.174ZM116.2 17.568C117.24 17.568 118.16 17.84 118.96 18.384C119.776 18.912 120.408 19.664 120.856 20.64C121.32 21.6 121.552 22.704 121.552 23.952C121.552 25.2 121.328 26.296 120.88 27.24C120.432 28.184 119.8 28.912 118.984 29.424C118.184 29.936 117.256 30.192 116.2 30.192C115.32 30.192 114.536 30.008 113.848 29.64C113.16 29.256 112.632 28.728 112.264 28.056V35.184H109.288V21.312C109.288 20.032 109.224 18.888 109.096 17.88H111.904L112.144 19.968C112.464 19.216 112.984 18.632 113.704 18.216C114.424 17.784 115.256 17.568 116.2 17.568ZM115.384 27.84C116.392 27.84 117.168 27.504 117.712 26.832C118.256 26.16 118.528 25.2 118.528 23.952C118.528 22.688 118.256 21.704 117.712 21C117.168 20.28 116.4 19.92 115.408 19.92C114.384 19.92 113.6 20.264 113.056 20.952C112.512 21.64 112.24 22.624 112.24 23.904C112.24 25.168 112.512 26.144 113.056 26.832C113.6 27.504 114.376 27.84 115.384 27.84ZM129.667 30.192C128.435 30.192 127.347 29.936 126.403 29.424C125.475 28.912 124.755 28.184 124.243 27.24C123.747 26.28 123.499 25.16 123.499 23.88C123.499 22.6 123.747 21.488 124.243 20.544C124.755 19.584 125.475 18.848 126.403 18.336C127.347 17.824 128.435 17.568 129.667 17.568C130.883 17.568 131.955 17.824 132.883 18.336C133.811 18.848 134.523 19.584 135.019 20.544C135.531 21.488 135.787 22.6 135.787 23.88C135.787 25.16 135.531 26.28 135.019 27.24C134.523 28.184 133.811 28.912 132.883 29.424C131.955 29.936 130.883 30.192 129.667 30.192ZM129.643 27.84C130.667 27.84 131.443 27.512 131.971 26.856C132.515 26.184 132.787 25.192 132.787 23.88C132.787 22.584 132.515 21.6 131.971 20.928C131.427 20.24 130.659 19.896 129.667 19.896C128.659 19.896 127.883 20.24 127.339 20.928C126.795 21.6 126.523 22.584 126.523 23.88C126.523 25.192 126.787 26.184 127.315 26.856C127.859 27.512 128.635 27.84 129.643 27.84ZM138.374 12.336H141.35V30H138.374V12.336ZM166.314 12.912V30H163.242V22.584H154.482V30H151.434V12.912H154.482V20.064H163.242V12.912H166.314ZM175.3 30.192C174.068 30.192 172.98 29.936 172.036 29.424C171.108 28.912 170.388 28.184 169.876 27.24C169.38 26.28 169.132 25.16 169.132 23.88C169.132 22.6 169.38 21.488 169.876 20.544C170.388 19.584 171.108 18.848 172.036 18.336C172.98 17.824 174.068 17.568 175.3 17.568C176.516 17.568 177.588 17.824 178.516 18.336C179.444 18.848 180.156 19.584 180.652 20.544C181.164 21.488 181.42 22.6 181.42 23.88C181.42 25.16 181.164 26.28 180.652 27.24C180.156 28.184 179.444 28.912 178.516 29.424C177.588 29.936 176.516 30.192 175.3 30.192ZM175.276 27.84C176.3 27.84 177.076 27.512 177.604 26.856C178.148 26.184 178.42 25.192 178.42 23.88C178.42 22.584 178.148 21.6 177.604 20.928C177.06 20.24 176.292 19.896 175.3 19.896C174.292 19.896 173.516 20.24 172.972 20.928C172.428 21.6 172.156 22.584 172.156 23.88C172.156 25.192 172.42 26.184 172.948 26.856C173.492 27.512 174.268 27.84 175.276 27.84ZM188.447 30.192C186.255 30.192 184.511 29.68 183.215 28.656L184.055 26.544C185.351 27.504 186.831 27.984 188.495 27.984C189.215 27.984 189.767 27.864 190.151 27.624C190.551 27.384 190.751 27.048 190.751 26.616C190.751 26.248 190.615 25.96 190.343 25.752C190.071 25.528 189.607 25.336 188.951 25.176L186.935 24.72C184.727 24.24 183.623 23.112 183.623 21.336C183.623 20.6 183.831 19.952 184.247 19.392C184.663 18.816 185.247 18.368 185.999 18.048C186.751 17.728 187.623 17.568 188.615 17.568C189.479 17.568 190.311 17.704 191.111 17.976C191.911 18.232 192.615 18.608 193.223 19.104L192.335 21.144C191.119 20.248 189.871 19.8 188.591 19.8C187.903 19.8 187.367 19.928 186.983 20.184C186.599 20.44 186.407 20.792 186.407 21.24C186.407 21.592 186.519 21.872 186.743 22.08C186.983 22.288 187.383 22.464 187.943 22.608L190.007 23.064C191.207 23.336 192.079 23.76 192.623 24.336C193.183 24.896 193.463 25.632 193.463 26.544C193.463 27.664 193.015 28.552 192.119 29.208C191.223 29.864 189.999 30.192 188.447 30.192ZM202.942 17.568C203.982 17.568 204.902 17.84 205.702 18.384C206.518 18.912 207.15 19.664 207.598 20.64C208.062 21.6 208.294 22.704 208.294 23.952C208.294 25.2 208.07 26.296 207.622 27.24C207.174 28.184 206.542 28.912 205.726 29.424C204.926 29.936 203.998 30.192 202.942 30.192C202.062 30.192 201.278 30.008 200.59 29.64C199.902 29.256 199.374 28.728 199.006 28.056V35.184H196.03V21.312C196.03 20.032 195.966 18.888 195.838 17.88H198.646L198.886 19.968C199.206 19.216 199.726 18.632 200.446 18.216C201.166 17.784 201.998 17.568 202.942 17.568ZM202.126 27.84C203.134 27.84 203.91 27.504 204.454 26.832C204.998 26.16 205.27 25.2 205.27 23.952C205.27 22.688 204.998 21.704 204.454 21C203.91 20.28 203.142 19.92 202.15 19.92C201.126 19.92 200.342 20.264 199.798 20.952C199.254 21.64 198.982 22.624 198.982 23.904C198.982 25.168 199.254 26.144 199.798 26.832C200.342 27.504 201.118 27.84 202.126 27.84ZM210.913 17.88H213.889V30H210.913V17.88ZM214.057 12.384V15.336H210.721V12.384H214.057ZM220.987 20.136V25.56C220.987 26.984 221.651 27.696 222.979 27.696C223.347 27.696 223.747 27.632 224.179 27.504V29.88C223.651 30.072 223.011 30.168 222.259 30.168C220.883 30.168 219.827 29.784 219.091 29.016C218.355 28.248 217.987 27.144 217.987 25.704V20.136H215.659V17.88H217.987V14.928L220.987 13.92V17.88H224.203V20.136H220.987ZM237.857 17.88V30H234.905V28.056C234.537 28.728 234.009 29.256 233.321 29.64C232.633 30.008 231.849 30.192 230.969 30.192C229.913 30.192 228.977 29.936 228.161 29.424C227.345 28.912 226.713 28.184 226.265 27.24C225.817 26.296 225.593 25.2 225.593 23.952C225.593 22.704 225.817 21.6 226.265 20.64C226.729 19.664 227.369 18.912 228.185 18.384C229.001 17.84 229.929 17.568 230.969 17.568C231.849 17.568 232.633 17.76 233.321 18.144C234.009 18.512 234.537 19.032 234.905 19.704V17.88H237.857ZM231.785 27.84C232.777 27.84 233.545 27.496 234.089 26.808C234.633 26.12 234.905 25.152 234.905 23.904C234.905 22.624 234.633 21.64 234.089 20.952C233.545 20.264 232.769 19.92 231.761 19.92C230.769 19.92 229.993 20.28 229.433 21C228.889 21.704 228.617 22.688 228.617 23.952C228.617 25.2 228.889 26.16 229.433 26.832C229.993 27.504 230.777 27.84 231.785 27.84ZM241.124 12.336H244.1V30H241.124V12.336Z" fill="#233348"/>
<circle cx="20.5" cy="20.5" r="20.5" fill="#458FF6"/>
<path d="M29.5011 11.488V30H26.5371V18.508L21.6231 30H19.4131L14.4731 18.638V30H11.5091V11.488H14.1611L20.5311 25.97L26.8491 11.488H29.5011Z" fill="white"/>
</svg>
