<svg width="20" height="15" viewBox="0 0 20 15" fill="none" xmlns="http://www.w3.org/2000/svg">
<path fill-rule="evenodd" clip-rule="evenodd" d="M8.07247 6.84028C8.07247 6.84028 9.96213 6.69327 9.96213 4.3413C9.96213 1.99587 8.41658 0.845215 6.45439 0.845215H0V13.9792H6.45381C6.45381 13.9792 10.3964 14.1072 10.3964 10.0998C10.3967 10.0998 10.5658 6.84028 8.07247 6.84028ZM10.8855 9.23079C10.8855 9.20499 10.8917 4.18776 15.649 4.18776C20.6724 4.18776 19.966 9.88879 19.966 9.88879H13.5421C13.5421 12.3241 15.7216 12.1705 15.7216 12.1705C17.7862 12.1705 17.714 10.7582 17.714 10.7582H19.8934C19.8934 14.5097 15.649 14.2542 15.649 14.2542C10.5596 14.2542 10.8855 9.23079 10.8855 9.23079ZM15.6975 6.11141C13.7834 6.11141 13.5177 8.13111 13.5177 8.13111H17.5871C17.5871 8.13111 17.6174 6.11141 15.6975 6.11141ZM6.4541 3.17791H2.84389V6.11141H6.23066C6.81641 6.11141 7.32964 5.91311 7.32964 4.54551C7.32964 3.17791 6.4541 3.17791 6.4541 3.17791ZM6.27324 11.6465H2.84389V8.13111H6.4541C6.4541 8.13111 7.76447 8.11837 7.75831 9.93977C7.75831 11.474 6.78647 11.6337 6.27324 11.6465ZM12.9804 3.23572V1.61853H18.1004V3.23572H12.9804Z" fill="#5A5A5A"/>
</svg>
