<svg width="20" height="20" viewBox="0 0 20 20" fill="none" xmlns="http://www.w3.org/2000/svg">
<g clip-path="url(#clip0)">
<path d="M9.99872 4.21777C8.04468 4.21777 6.45486 5.80743 6.45486 7.76147C6.45486 9.71567 8.04468 11.3053 9.99872 11.3053C11.9528 11.3053 13.5424 9.71567 13.5424 7.76147C13.5424 5.80743 11.9528 4.21777 9.99872 4.21777Z" fill="#00CEC8"/>
<path d="M17.3801 10.1597L16.3054 7.76137L17.3801 5.363L15.1011 4.05425L14.5607 1.48224L11.9475 1.76315L9.99867 0L8.04967 1.76315L5.43661 1.48239L4.8963 4.0544L2.6171 5.363L3.69177 7.76137L2.6171 10.1597L4.8963 11.4685L5.18896 12.8619L2.7561 18.0314L5.29516 18.0647L6.93914 20L9.33049 14.9183L9.99867 15.5227L10.6667 14.9183L13.0582 20L14.702 18.0647L17.2411 18.0314L14.8082 12.8619L15.1011 11.4685L17.3801 10.1597ZM9.99867 12.4769C7.39843 12.4769 5.28311 10.3616 5.28311 7.76137C5.28311 5.16112 7.39843 3.0458 9.99867 3.0458C12.5988 3.0458 14.7142 5.16127 14.7142 7.76137C14.7142 10.3616 12.5988 12.4769 9.99867 12.4769Z" fill="#00CEC8"/>
</g>
<defs>
<clipPath id="clip0">
<rect width="20" height="20" fill="white"/>
</clipPath>
</defs>
</svg>
