<svg width="71" height="22" viewBox="0 0 71 22" fill="none" xmlns="http://www.w3.org/2000/svg">
<path d="M0.872 1.384H4.33L10.024 11.238H10.232L15.926 1.384H19.41V20H15.926V10.822L16.134 7.702H15.926L11.194 16.048H9.088L4.33 7.702H4.122L4.33 10.822V20H0.872V1.384ZM27.819 1.384H31.823L38.817 20H34.943L33.409 15.554H26.233L24.699 20H20.825L27.819 1.384ZM32.265 12.33L30.601 7.676L29.925 5.414H29.717L29.041 7.676L27.377 12.33H32.265ZM52.5525 19.584C51.9458 19.844 51.3045 20.0433 50.6285 20.182C49.9525 20.338 49.2505 20.416 48.5225 20.416C47.1358 20.416 45.8445 20.1647 44.6485 19.662C43.4698 19.1593 42.4471 18.4747 41.5805 17.608C40.7138 16.724 40.0291 15.6927 39.5265 14.514C39.0411 13.318 38.7985 12.044 38.7985 10.692C38.7985 9.34 39.0411 8.07467 39.5265 6.896C40.0291 5.7 40.7138 4.66867 41.5805 3.802C42.4471 2.918 43.4698 2.22467 44.6485 1.722C45.8445 1.21933 47.1358 0.967999 48.5225 0.967999C49.9092 0.967999 51.1918 1.21933 52.3705 1.722C53.5665 2.22467 54.5978 2.918 55.4645 3.802C56.3312 4.66867 57.0072 5.7 57.4925 6.896C57.9952 8.07467 58.2465 9.34 58.2465 10.692C58.2465 12.1307 57.9778 13.4653 57.4405 14.696C56.9032 15.9267 56.1492 16.984 55.1785 17.868L56.6085 20L54.0085 21.742L52.5525 19.584ZM48.6005 13.656L51.2005 11.888L53.2285 14.956C53.6965 14.4187 54.0605 13.7947 54.3205 13.084C54.5978 12.356 54.7365 11.5587 54.7365 10.692C54.7365 9.73867 54.5718 8.872 54.2425 8.092C53.9305 7.29467 53.4885 6.61867 52.9165 6.064C52.3618 5.50933 51.7032 5.076 50.9405 4.764C50.1952 4.452 49.3892 4.296 48.5225 4.296C47.6558 4.296 46.8412 4.452 46.0785 4.764C45.3332 5.076 44.6745 5.50933 44.1025 6.064C43.5478 6.61867 43.1058 7.29467 42.7765 8.092C42.4645 8.872 42.3085 9.73867 42.3085 10.692C42.3085 11.6453 42.4645 12.5207 42.7765 13.318C43.1058 14.098 43.5478 14.7653 44.1025 15.32C44.6745 15.8747 45.3332 16.308 46.0785 16.62C46.8412 16.932 47.6558 17.088 48.5225 17.088C48.9038 17.088 49.2678 17.0533 49.6145 16.984C49.9612 16.9147 50.2992 16.8193 50.6285 16.698L48.6005 13.656ZM64.9354 20.416C64.1034 20.416 63.3581 20.312 62.6994 20.104C62.0581 19.896 61.4947 19.6273 61.0094 19.298C60.5414 18.9513 60.1427 18.5613 59.8134 18.128C59.4841 17.6773 59.2327 17.2267 59.0594 16.776L62.1014 15.476C62.3961 16.1347 62.7861 16.6287 63.2714 16.958C63.7741 17.27 64.3287 17.426 64.9354 17.426C65.5594 17.426 66.0534 17.3133 66.4174 17.088C66.7814 16.8627 66.9634 16.594 66.9634 16.282C66.9634 15.9353 66.8074 15.658 66.4954 15.45C66.2007 15.2247 65.6807 15.0253 64.9354 14.852L63.1414 14.462C62.7427 14.3753 62.3267 14.2367 61.8934 14.046C61.4774 13.8553 61.0961 13.6127 60.7494 13.318C60.4027 13.0233 60.1167 12.668 59.8914 12.252C59.6661 11.836 59.5534 11.3507 59.5534 10.796C59.5534 10.172 59.6834 9.61733 59.9434 9.132C60.2207 8.64667 60.5934 8.23933 61.0614 7.91C61.5294 7.56333 62.0754 7.30333 62.6994 7.13C63.3407 6.93933 64.0254 6.844 64.7534 6.844C65.9667 6.844 67.0501 7.08667 68.0034 7.572C68.9567 8.04 69.6587 8.794 70.1094 9.834L67.1714 11.03C66.9287 10.5273 66.5734 10.1633 66.1054 9.938C65.6374 9.71267 65.1694 9.6 64.7014 9.6C64.2161 9.6 63.7914 9.704 63.4274 9.912C63.0634 10.1027 62.8814 10.354 62.8814 10.666C62.8814 10.9607 63.0287 11.1947 63.3234 11.368C63.6354 11.5413 64.0514 11.6973 64.5714 11.836L66.5214 12.304C67.8214 12.616 68.7834 13.1187 69.4074 13.812C70.0487 14.488 70.3694 15.294 70.3694 16.23C70.3694 16.7847 70.2394 17.3133 69.9794 17.816C69.7194 18.3187 69.3467 18.7693 68.8614 19.168C68.3934 19.5493 67.8214 19.8527 67.1454 20.078C66.4867 20.3033 65.7501 20.416 64.9354 20.416Z" fill="url(#paint0_linear)"/>
<defs>
<linearGradient id="paint0_linear" x1="-1" y1="11" x2="72" y2="11" gradientUnits="userSpaceOnUse">
<stop stop-color="#3AE4DF"/>
<stop offset="1" stop-color="#7A88FF"/>
</linearGradient>
</defs>
</svg>
