<svg width="853" height="968" viewBox="0 0 853 968" fill="none" xmlns="http://www.w3.org/2000/svg">
<g opacity="0.6" clip-path="url(#clip0)">
<path d="M-154.953 356.268C-93.577 285.781 27.6289 376.97 203.25 337.061C355.359 302.479 364.11 210.622 485.642 215.177C574.431 218.487 671.183 269.755 724.356 359.072C782.997 457.551 761.68 557.81 755.696 582.139C728.983 691.263 649.698 748.826 621.728 768.487C506.488 849.44 377.173 835.254 315.136 828.479C82.0999 802.957 -167.386 636.583 -178.495 455.701C-179.971 432.021 -182.658 388.098 -154.953 356.268Z" fill="url(#paint0_linear)"/>
</g>
<defs>
<linearGradient id="paint0_linear" x1="429.823" y1="69.8268" x2="195.583" y2="775.635" gradientUnits="userSpaceOnUse">
<stop stop-color="#F3F7FF"/>
<stop offset="1" stop-color="#DEEEFE"/>
</linearGradient>
<clipPath id="clip0">
<rect width="937.962" height="671.376" fill="white" transform="translate(-20.4224) rotate(21.4558)"/>
</clipPath>
</defs>
</svg>
