<svg width="132" height="115" viewBox="0 0 132 115" fill="none" xmlns="http://www.w3.org/2000/svg">
<g opacity="0.3">
<mask id="mask0" mask-type="alpha" maskUnits="userSpaceOnUse" x="0" y="0" width="11" height="11">
<path d="M5.22838 10.425C8.11594 10.425 10.4568 8.09121 10.4568 5.21245C10.4568 2.33368 8.11594 0 5.22838 0C2.34082 0 0 2.33368 0 5.21245C0 8.09121 2.34082 10.425 5.22838 10.425Z" fill="url(#paint0_linear)"/>
</mask>
<g mask="url(#mask0)">
<path d="M5.22838 10.425C8.11594 10.425 10.4568 8.09121 10.4568 5.21245C10.4568 2.33368 8.11594 0 5.22838 0C2.34082 0 0 2.33368 0 5.21245C0 8.09121 2.34082 10.425 5.22838 10.425Z" fill="url(#paint1_linear)"/>
</g>
<mask id="mask1" mask-type="alpha" maskUnits="userSpaceOnUse" x="30" y="0" width="11" height="11">
<path d="M35.5095 10.425C38.397 10.425 40.7378 8.09121 40.7378 5.21245C40.7378 2.33368 38.397 0 35.5095 0C32.6219 0 30.2811 2.33368 30.2811 5.21245C30.2811 8.09121 32.6219 10.425 35.5095 10.425Z" fill="url(#paint2_linear)"/>
</mask>
<g mask="url(#mask1)">
<path d="M35.5095 10.425C38.397 10.425 40.7378 8.09121 40.7378 5.21245C40.7378 2.33368 38.397 0 35.5095 0C32.6219 0 30.2811 2.33368 30.2811 5.21245C30.2811 8.09121 32.6219 10.425 35.5095 10.425Z" fill="url(#paint3_linear)"/>
</g>
<mask id="mask2" mask-type="alpha" maskUnits="userSpaceOnUse" x="60" y="0" width="12" height="11">
<path d="M65.7905 10.425C68.6781 10.425 71.0189 8.09121 71.0189 5.21245C71.0189 2.33368 68.6781 0 65.7905 0C62.903 0 60.5621 2.33368 60.5621 5.21245C60.5621 8.09121 62.903 10.425 65.7905 10.425Z" fill="url(#paint4_linear)"/>
</mask>
<g mask="url(#mask2)">
<path d="M65.7905 10.425C68.6781 10.425 71.0189 8.09121 71.0189 5.21245C71.0189 2.33368 68.6781 0 65.7905 0C62.903 0 60.5621 2.33368 60.5621 5.21245C60.5621 8.09121 62.903 10.425 65.7905 10.425Z" fill="url(#paint5_linear)"/>
</g>
<mask id="mask3" mask-type="alpha" maskUnits="userSpaceOnUse" x="90" y="0" width="12" height="11">
<path d="M96.0716 10.425C98.9592 10.425 101.3 8.09121 101.3 5.21245C101.3 2.33368 98.9592 0 96.0716 0C93.184 0 90.8432 2.33368 90.8432 5.21245C90.8432 8.09121 93.184 10.425 96.0716 10.425Z" fill="url(#paint6_linear)"/>
</mask>
<g mask="url(#mask3)">
<path d="M96.0716 10.425C98.9592 10.425 101.3 8.09121 101.3 5.21245C101.3 2.33368 98.9592 0 96.0716 0C93.184 0 90.8432 2.33368 90.8432 5.21245C90.8432 8.09121 93.184 10.425 96.0716 10.425Z" fill="url(#paint7_linear)"/>
</g>
<mask id="mask4" mask-type="alpha" maskUnits="userSpaceOnUse" x="121" y="0" width="11" height="11">
<path d="M126.353 10.425C129.24 10.425 131.581 8.09121 131.581 5.21245C131.581 2.33368 129.24 0 126.353 0C123.465 0 121.124 2.33368 121.124 5.21245C121.124 8.09121 123.465 10.425 126.353 10.425Z" fill="url(#paint8_linear)"/>
</mask>
<g mask="url(#mask4)">
<path d="M126.353 10.425C129.24 10.425 131.581 8.09121 131.581 5.21245C131.581 2.33368 129.24 0 126.353 0C123.465 0 121.124 2.33368 121.124 5.21245C121.124 8.09121 123.465 10.425 126.353 10.425Z" fill="url(#paint9_linear)"/>
</g>
<mask id="mask5" mask-type="alpha" maskUnits="userSpaceOnUse" x="0" y="26" width="11" height="11">
<path d="M5.22838 36.5958C8.11594 36.5958 10.4568 34.2621 10.4568 31.3833C10.4568 28.5046 8.11594 26.1709 5.22838 26.1709C2.34082 26.1709 0 28.5046 0 31.3833C0 34.2621 2.34082 36.5958 5.22838 36.5958Z" fill="url(#paint10_linear)"/>
</mask>
<g mask="url(#mask5)">
<path d="M5.22838 36.5958C8.11594 36.5958 10.4568 34.2621 10.4568 31.3833C10.4568 28.5046 8.11594 26.1709 5.22838 26.1709C2.34082 26.1709 0 28.5046 0 31.3833C0 34.2621 2.34082 36.5958 5.22838 36.5958Z" fill="url(#paint11_linear)"/>
</g>
<mask id="mask6" mask-type="alpha" maskUnits="userSpaceOnUse" x="30" y="26" width="11" height="11">
<path d="M35.5095 36.5958C38.397 36.5958 40.7378 34.2621 40.7378 31.3833C40.7378 28.5046 38.397 26.1709 35.5095 26.1709C32.6219 26.1709 30.2811 28.5046 30.2811 31.3833C30.2811 34.2621 32.6219 36.5958 35.5095 36.5958Z" fill="url(#paint12_linear)"/>
</mask>
<g mask="url(#mask6)">
<path d="M35.5095 36.5958C38.397 36.5958 40.7378 34.2621 40.7378 31.3833C40.7378 28.5046 38.397 26.1709 35.5095 26.1709C32.6219 26.1709 30.2811 28.5046 30.2811 31.3833C30.2811 34.2621 32.6219 36.5958 35.5095 36.5958Z" fill="url(#paint13_linear)"/>
</g>
<mask id="mask7" mask-type="alpha" maskUnits="userSpaceOnUse" x="60" y="26" width="12" height="11">
<path d="M65.7905 36.5958C68.6781 36.5958 71.0189 34.2621 71.0189 31.3833C71.0189 28.5046 68.6781 26.1709 65.7905 26.1709C62.903 26.1709 60.5621 28.5046 60.5621 31.3833C60.5621 34.2621 62.903 36.5958 65.7905 36.5958Z" fill="url(#paint14_linear)"/>
</mask>
<g mask="url(#mask7)">
<path d="M65.7905 36.5958C68.6781 36.5958 71.0189 34.2621 71.0189 31.3833C71.0189 28.5046 68.6781 26.1709 65.7905 26.1709C62.903 26.1709 60.5621 28.5046 60.5621 31.3833C60.5621 34.2621 62.903 36.5958 65.7905 36.5958Z" fill="url(#paint15_linear)"/>
</g>
<mask id="mask8" mask-type="alpha" maskUnits="userSpaceOnUse" x="90" y="26" width="12" height="11">
<path d="M96.0716 36.5958C98.9592 36.5958 101.3 34.2621 101.3 31.3833C101.3 28.5046 98.9592 26.1709 96.0716 26.1709C93.184 26.1709 90.8432 28.5046 90.8432 31.3833C90.8432 34.2621 93.184 36.5958 96.0716 36.5958Z" fill="url(#paint16_linear)"/>
</mask>
<g mask="url(#mask8)">
<path d="M96.0716 36.5958C98.9592 36.5958 101.3 34.2621 101.3 31.3833C101.3 28.5046 98.9592 26.1709 96.0716 26.1709C93.184 26.1709 90.8432 28.5046 90.8432 31.3833C90.8432 34.2621 93.184 36.5958 96.0716 36.5958Z" fill="url(#paint17_linear)"/>
</g>
<mask id="mask9" mask-type="alpha" maskUnits="userSpaceOnUse" x="121" y="26" width="11" height="11">
<path d="M126.353 36.5958C129.24 36.5958 131.581 34.2621 131.581 31.3833C131.581 28.5046 129.24 26.1709 126.353 26.1709C123.465 26.1709 121.124 28.5046 121.124 31.3833C121.124 34.2621 123.465 36.5958 126.353 36.5958Z" fill="url(#paint18_linear)"/>
</mask>
<g mask="url(#mask9)">
<path d="M126.353 36.5958C129.24 36.5958 131.581 34.2621 131.581 31.3833C131.581 28.5046 129.24 26.1709 126.353 26.1709C123.465 26.1709 121.124 28.5046 121.124 31.3833C121.124 34.2621 123.465 36.5958 126.353 36.5958Z" fill="url(#paint19_linear)"/>
</g>
<mask id="mask10" mask-type="alpha" maskUnits="userSpaceOnUse" x="0" y="52" width="11" height="11">
<path d="M5.22838 62.7126C8.11594 62.7126 10.4568 60.3789 10.4568 57.5001C10.4568 54.6213 8.11594 52.2876 5.22838 52.2876C2.34082 52.2876 0 54.6213 0 57.5001C0 60.3789 2.34082 62.7126 5.22838 62.7126Z" fill="url(#paint20_linear)"/>
</mask>
<g mask="url(#mask10)">
<path d="M5.22838 62.7126C8.11594 62.7126 10.4568 60.3789 10.4568 57.5001C10.4568 54.6213 8.11594 52.2876 5.22838 52.2876C2.34082 52.2876 0 54.6213 0 57.5001C0 60.3789 2.34082 62.7126 5.22838 62.7126Z" fill="url(#paint21_linear)"/>
</g>
<mask id="mask11" mask-type="alpha" maskUnits="userSpaceOnUse" x="30" y="52" width="11" height="11">
<path d="M35.5095 62.7126C38.397 62.7126 40.7378 60.3789 40.7378 57.5001C40.7378 54.6213 38.397 52.2876 35.5095 52.2876C32.6219 52.2876 30.2811 54.6213 30.2811 57.5001C30.2811 60.3789 32.6219 62.7126 35.5095 62.7126Z" fill="url(#paint22_linear)"/>
</mask>
<g mask="url(#mask11)">
<path d="M35.5095 62.7126C38.397 62.7126 40.7378 60.3789 40.7378 57.5001C40.7378 54.6213 38.397 52.2876 35.5095 52.2876C32.6219 52.2876 30.2811 54.6213 30.2811 57.5001C30.2811 60.3789 32.6219 62.7126 35.5095 62.7126Z" fill="url(#paint23_linear)"/>
</g>
<mask id="mask12" mask-type="alpha" maskUnits="userSpaceOnUse" x="60" y="52" width="12" height="11">
<path d="M65.7905 62.7126C68.6781 62.7126 71.0189 60.3789 71.0189 57.5001C71.0189 54.6213 68.6781 52.2876 65.7905 52.2876C62.903 52.2876 60.5621 54.6213 60.5621 57.5001C60.5621 60.3789 62.903 62.7126 65.7905 62.7126Z" fill="url(#paint24_linear)"/>
</mask>
<g mask="url(#mask12)">
<path d="M65.7905 62.7126C68.6781 62.7126 71.0189 60.3789 71.0189 57.5001C71.0189 54.6213 68.6781 52.2876 65.7905 52.2876C62.903 52.2876 60.5621 54.6213 60.5621 57.5001C60.5621 60.3789 62.903 62.7126 65.7905 62.7126Z" fill="url(#paint25_linear)"/>
</g>
<mask id="mask13" mask-type="alpha" maskUnits="userSpaceOnUse" x="90" y="52" width="12" height="11">
<path d="M96.0716 62.7126C98.9592 62.7126 101.3 60.3789 101.3 57.5001C101.3 54.6213 98.9592 52.2876 96.0716 52.2876C93.184 52.2876 90.8432 54.6213 90.8432 57.5001C90.8432 60.3789 93.184 62.7126 96.0716 62.7126Z" fill="url(#paint26_linear)"/>
</mask>
<g mask="url(#mask13)">
<path d="M96.0716 62.7126C98.9592 62.7126 101.3 60.3789 101.3 57.5001C101.3 54.6213 98.9592 52.2876 96.0716 52.2876C93.184 52.2876 90.8432 54.6213 90.8432 57.5001C90.8432 60.3789 93.184 62.7126 96.0716 62.7126Z" fill="url(#paint27_linear)"/>
</g>
<mask id="mask14" mask-type="alpha" maskUnits="userSpaceOnUse" x="121" y="52" width="11" height="11">
<path d="M126.353 62.7126C129.24 62.7126 131.581 60.3789 131.581 57.5001C131.581 54.6213 129.24 52.2876 126.353 52.2876C123.465 52.2876 121.124 54.6213 121.124 57.5001C121.124 60.3789 123.465 62.7126 126.353 62.7126Z" fill="url(#paint28_linear)"/>
</mask>
<g mask="url(#mask14)">
<path d="M126.353 62.7126C129.24 62.7126 131.581 60.3789 131.581 57.5001C131.581 54.6213 129.24 52.2876 126.353 52.2876C123.465 52.2876 121.124 54.6213 121.124 57.5001C121.124 60.3789 123.465 62.7126 126.353 62.7126Z" fill="url(#paint29_linear)"/>
</g>
<mask id="mask15" mask-type="alpha" maskUnits="userSpaceOnUse" x="0" y="78" width="11" height="11">
<path d="M5.22838 88.8835C8.11594 88.8835 10.4568 86.5497 10.4568 83.6709C10.4568 80.7922 8.11594 78.4585 5.22838 78.4585C2.34082 78.4585 0 80.7922 0 83.6709C0 86.5497 2.34082 88.8835 5.22838 88.8835Z" fill="url(#paint30_linear)"/>
</mask>
<g mask="url(#mask15)">
<path d="M5.22838 88.8835C8.11594 88.8835 10.4568 86.5497 10.4568 83.6709C10.4568 80.7922 8.11594 78.4585 5.22838 78.4585C2.34082 78.4585 0 80.7922 0 83.6709C0 86.5497 2.34082 88.8835 5.22838 88.8835Z" fill="url(#paint31_linear)"/>
</g>
<mask id="mask16" mask-type="alpha" maskUnits="userSpaceOnUse" x="30" y="78" width="11" height="11">
<path d="M35.5095 88.8835C38.397 88.8835 40.7378 86.5497 40.7378 83.6709C40.7378 80.7922 38.397 78.4585 35.5095 78.4585C32.6219 78.4585 30.2811 80.7922 30.2811 83.6709C30.2811 86.5497 32.6219 88.8835 35.5095 88.8835Z" fill="url(#paint32_linear)"/>
</mask>
<g mask="url(#mask16)">
<path d="M35.5095 88.8835C38.397 88.8835 40.7378 86.5497 40.7378 83.6709C40.7378 80.7922 38.397 78.4585 35.5095 78.4585C32.6219 78.4585 30.2811 80.7922 30.2811 83.6709C30.2811 86.5497 32.6219 88.8835 35.5095 88.8835Z" fill="url(#paint33_linear)"/>
</g>
<mask id="mask17" mask-type="alpha" maskUnits="userSpaceOnUse" x="60" y="78" width="12" height="11">
<path d="M65.7905 88.8835C68.6781 88.8835 71.0189 86.5497 71.0189 83.6709C71.0189 80.7922 68.6781 78.4585 65.7905 78.4585C62.903 78.4585 60.5621 80.7922 60.5621 83.6709C60.5621 86.5497 62.903 88.8835 65.7905 88.8835Z" fill="url(#paint34_linear)"/>
</mask>
<g mask="url(#mask17)">
<path d="M65.7905 88.8835C68.6781 88.8835 71.0189 86.5497 71.0189 83.6709C71.0189 80.7922 68.6781 78.4585 65.7905 78.4585C62.903 78.4585 60.5621 80.7922 60.5621 83.6709C60.5621 86.5497 62.903 88.8835 65.7905 88.8835Z" fill="url(#paint35_linear)"/>
</g>
<mask id="mask18" mask-type="alpha" maskUnits="userSpaceOnUse" x="90" y="78" width="12" height="11">
<path d="M96.0716 88.8835C98.9592 88.8835 101.3 86.5497 101.3 83.6709C101.3 80.7922 98.9592 78.4585 96.0716 78.4585C93.184 78.4585 90.8432 80.7922 90.8432 83.6709C90.8432 86.5497 93.184 88.8835 96.0716 88.8835Z" fill="url(#paint36_linear)"/>
</mask>
<g mask="url(#mask18)">
<path d="M96.0716 88.8835C98.9592 88.8835 101.3 86.5497 101.3 83.6709C101.3 80.7922 98.9592 78.4585 96.0716 78.4585C93.184 78.4585 90.8432 80.7922 90.8432 83.6709C90.8432 86.5497 93.184 88.8835 96.0716 88.8835Z" fill="url(#paint37_linear)"/>
</g>
<mask id="mask19" mask-type="alpha" maskUnits="userSpaceOnUse" x="121" y="78" width="11" height="11">
<path d="M126.353 88.8835C129.24 88.8835 131.581 86.5497 131.581 83.6709C131.581 80.7922 129.24 78.4585 126.353 78.4585C123.465 78.4585 121.124 80.7922 121.124 83.6709C121.124 86.5497 123.465 88.8835 126.353 88.8835Z" fill="url(#paint38_linear)"/>
</mask>
<g mask="url(#mask19)">
<path d="M126.353 88.8835C129.24 88.8835 131.581 86.5497 131.581 83.6709C131.581 80.7922 129.24 78.4585 126.353 78.4585C123.465 78.4585 121.124 80.7922 121.124 83.6709C121.124 86.5497 123.465 88.8835 126.353 88.8835Z" fill="url(#paint39_linear)"/>
</g>
<mask id="mask20" mask-type="alpha" maskUnits="userSpaceOnUse" x="0" y="104" width="11" height="12">
<path d="M5.22838 115C8.11594 115 10.4568 112.666 10.4568 109.788C10.4568 106.909 8.11594 104.575 5.22838 104.575C2.34082 104.575 0 106.909 0 109.788C0 112.666 2.34082 115 5.22838 115Z" fill="url(#paint40_linear)"/>
</mask>
<g mask="url(#mask20)">
<path d="M5.22838 115C8.11594 115 10.4568 112.666 10.4568 109.788C10.4568 106.909 8.11594 104.575 5.22838 104.575C2.34082 104.575 0 106.909 0 109.788C0 112.666 2.34082 115 5.22838 115Z" fill="url(#paint41_linear)"/>
</g>
<mask id="mask21" mask-type="alpha" maskUnits="userSpaceOnUse" x="30" y="104" width="11" height="12">
<path d="M35.5095 115C38.397 115 40.7378 112.666 40.7378 109.788C40.7378 106.909 38.397 104.575 35.5095 104.575C32.6219 104.575 30.2811 106.909 30.2811 109.788C30.2811 112.666 32.6219 115 35.5095 115Z" fill="url(#paint42_linear)"/>
</mask>
<g mask="url(#mask21)">
<path d="M35.5095 115C38.397 115 40.7378 112.666 40.7378 109.788C40.7378 106.909 38.397 104.575 35.5095 104.575C32.6219 104.575 30.2811 106.909 30.2811 109.788C30.2811 112.666 32.6219 115 35.5095 115Z" fill="url(#paint43_linear)"/>
</g>
<mask id="mask22" mask-type="alpha" maskUnits="userSpaceOnUse" x="60" y="104" width="12" height="12">
<path d="M65.7905 115C68.6781 115 71.0189 112.666 71.0189 109.788C71.0189 106.909 68.6781 104.575 65.7905 104.575C62.903 104.575 60.5621 106.909 60.5621 109.788C60.5621 112.666 62.903 115 65.7905 115Z" fill="url(#paint44_linear)"/>
</mask>
<g mask="url(#mask22)">
<path d="M65.7905 115C68.6781 115 71.0189 112.666 71.0189 109.788C71.0189 106.909 68.6781 104.575 65.7905 104.575C62.903 104.575 60.5621 106.909 60.5621 109.788C60.5621 112.666 62.903 115 65.7905 115Z" fill="url(#paint45_linear)"/>
</g>
<mask id="mask23" mask-type="alpha" maskUnits="userSpaceOnUse" x="90" y="104" width="12" height="12">
<path d="M96.0716 115C98.9592 115 101.3 112.666 101.3 109.788C101.3 106.909 98.9592 104.575 96.0716 104.575C93.184 104.575 90.8432 106.909 90.8432 109.788C90.8432 112.666 93.184 115 96.0716 115Z" fill="url(#paint46_linear)"/>
</mask>
<g mask="url(#mask23)">
<path d="M96.0716 115C98.9592 115 101.3 112.666 101.3 109.788C101.3 106.909 98.9592 104.575 96.0716 104.575C93.184 104.575 90.8432 106.909 90.8432 109.788C90.8432 112.666 93.184 115 96.0716 115Z" fill="url(#paint47_linear)"/>
</g>
<mask id="mask24" mask-type="alpha" maskUnits="userSpaceOnUse" x="121" y="104" width="11" height="12">
<path d="M126.353 115C129.24 115 131.581 112.666 131.581 109.788C131.581 106.909 129.24 104.575 126.353 104.575C123.465 104.575 121.124 106.909 121.124 109.788C121.124 112.666 123.465 115 126.353 115Z" fill="url(#paint48_linear)"/>
</mask>
<g mask="url(#mask24)">
<path d="M126.353 115C129.24 115 131.581 112.666 131.581 109.788C131.581 106.909 129.24 104.575 126.353 104.575C123.465 104.575 121.124 106.909 121.124 109.788C121.124 112.666 123.465 115 126.353 115Z" fill="url(#paint49_linear)"/>
</g>
</g>
<defs>
<linearGradient id="paint0_linear" x1="54.996" y1="131.134" x2="-16.4057" y2="-50.67" gradientUnits="userSpaceOnUse">
<stop/>
<stop offset="1" stop-color="white"/>
</linearGradient>
<linearGradient id="paint1_linear" x1="54.996" y1="131.134" x2="-16.4057" y2="-50.67" gradientUnits="userSpaceOnUse">
<stop stop-color="#97C3F9"/>
<stop offset="1" stop-color="#93C1F9"/>
</linearGradient>
<linearGradient id="paint2_linear" x1="81.2005" y1="120.843" x2="9.79889" y2="-60.9613" gradientUnits="userSpaceOnUse">
<stop/>
<stop offset="1" stop-color="white"/>
</linearGradient>
<linearGradient id="paint3_linear" x1="81.2005" y1="120.843" x2="9.79889" y2="-60.9613" gradientUnits="userSpaceOnUse">
<stop stop-color="#97C3F9"/>
<stop offset="1" stop-color="#93C1F9"/>
</linearGradient>
<linearGradient id="paint4_linear" x1="107.405" y1="110.551" x2="36.0033" y2="-71.2526" gradientUnits="userSpaceOnUse">
<stop/>
<stop offset="1" stop-color="white"/>
</linearGradient>
<linearGradient id="paint5_linear" x1="107.405" y1="110.551" x2="36.0033" y2="-71.2526" gradientUnits="userSpaceOnUse">
<stop stop-color="#97C3F9"/>
<stop offset="1" stop-color="#93C1F9"/>
</linearGradient>
<linearGradient id="paint6_linear" x1="133.609" y1="100.259" x2="62.2075" y2="-81.5444" gradientUnits="userSpaceOnUse">
<stop/>
<stop offset="1" stop-color="white"/>
</linearGradient>
<linearGradient id="paint7_linear" x1="133.609" y1="100.259" x2="62.2075" y2="-81.5444" gradientUnits="userSpaceOnUse">
<stop stop-color="#97C3F9"/>
<stop offset="1" stop-color="#93C1F9"/>
</linearGradient>
<linearGradient id="paint8_linear" x1="159.813" y1="89.9679" x2="88.4119" y2="-91.8359" gradientUnits="userSpaceOnUse">
<stop/>
<stop offset="1" stop-color="white"/>
</linearGradient>
<linearGradient id="paint9_linear" x1="159.813" y1="89.9679" x2="88.4119" y2="-91.8359" gradientUnits="userSpaceOnUse">
<stop stop-color="#97C3F9"/>
<stop offset="1" stop-color="#93C1F9"/>
</linearGradient>
<linearGradient id="paint10_linear" x1="46.0538" y1="134.645" x2="-25.3466" y2="-47.1572" gradientUnits="userSpaceOnUse">
<stop/>
<stop offset="1" stop-color="white"/>
</linearGradient>
<linearGradient id="paint11_linear" x1="46.0538" y1="134.645" x2="-25.3466" y2="-47.1572" gradientUnits="userSpaceOnUse">
<stop stop-color="#97C3F9"/>
<stop offset="1" stop-color="#93C1F9"/>
</linearGradient>
<linearGradient id="paint12_linear" x1="72.2581" y1="124.354" x2="0.857718" y2="-57.4491" gradientUnits="userSpaceOnUse">
<stop/>
<stop offset="1" stop-color="white"/>
</linearGradient>
<linearGradient id="paint13_linear" x1="72.2581" y1="124.354" x2="0.857718" y2="-57.4491" gradientUnits="userSpaceOnUse">
<stop stop-color="#97C3F9"/>
<stop offset="1" stop-color="#93C1F9"/>
</linearGradient>
<linearGradient id="paint14_linear" x1="98.4624" y1="114.062" x2="27.0621" y2="-67.7404" gradientUnits="userSpaceOnUse">
<stop/>
<stop offset="1" stop-color="white"/>
</linearGradient>
<linearGradient id="paint15_linear" x1="98.4624" y1="114.062" x2="27.0621" y2="-67.7404" gradientUnits="userSpaceOnUse">
<stop stop-color="#97C3F9"/>
<stop offset="1" stop-color="#93C1F9"/>
</linearGradient>
<linearGradient id="paint16_linear" x1="124.667" y1="103.771" x2="53.2663" y2="-78.0318" gradientUnits="userSpaceOnUse">
<stop/>
<stop offset="1" stop-color="white"/>
</linearGradient>
<linearGradient id="paint17_linear" x1="124.667" y1="103.771" x2="53.2663" y2="-78.0318" gradientUnits="userSpaceOnUse">
<stop stop-color="#97C3F9"/>
<stop offset="1" stop-color="#93C1F9"/>
</linearGradient>
<linearGradient id="paint18_linear" x1="150.871" y1="93.4793" x2="79.4707" y2="-88.3232" gradientUnits="userSpaceOnUse">
<stop/>
<stop offset="1" stop-color="white"/>
</linearGradient>
<linearGradient id="paint19_linear" x1="150.871" y1="93.4793" x2="79.4707" y2="-88.3232" gradientUnits="userSpaceOnUse">
<stop stop-color="#97C3F9"/>
<stop offset="1" stop-color="#93C1F9"/>
</linearGradient>
<linearGradient id="paint20_linear" x1="37.1113" y1="138.158" x2="-34.2903" y2="-43.6457" gradientUnits="userSpaceOnUse">
<stop/>
<stop offset="1" stop-color="white"/>
</linearGradient>
<linearGradient id="paint21_linear" x1="37.1113" y1="138.158" x2="-34.2903" y2="-43.6457" gradientUnits="userSpaceOnUse">
<stop stop-color="#97C3F9"/>
<stop offset="1" stop-color="#93C1F9"/>
</linearGradient>
<linearGradient id="paint22_linear" x1="63.3157" y1="127.867" x2="-8.0859" y2="-53.9373" gradientUnits="userSpaceOnUse">
<stop/>
<stop offset="1" stop-color="white"/>
</linearGradient>
<linearGradient id="paint23_linear" x1="63.3157" y1="127.867" x2="-8.0859" y2="-53.9373" gradientUnits="userSpaceOnUse">
<stop stop-color="#97C3F9"/>
<stop offset="1" stop-color="#93C1F9"/>
</linearGradient>
<linearGradient id="paint24_linear" x1="89.5201" y1="117.575" x2="18.1185" y2="-64.2287" gradientUnits="userSpaceOnUse">
<stop/>
<stop offset="1" stop-color="white"/>
</linearGradient>
<linearGradient id="paint25_linear" x1="89.5201" y1="117.575" x2="18.1185" y2="-64.2287" gradientUnits="userSpaceOnUse">
<stop stop-color="#97C3F9"/>
<stop offset="1" stop-color="#93C1F9"/>
</linearGradient>
<linearGradient id="paint26_linear" x1="115.724" y1="107.283" x2="44.3227" y2="-74.5204" gradientUnits="userSpaceOnUse">
<stop/>
<stop offset="1" stop-color="white"/>
</linearGradient>
<linearGradient id="paint27_linear" x1="115.724" y1="107.283" x2="44.3227" y2="-74.5204" gradientUnits="userSpaceOnUse">
<stop stop-color="#97C3F9"/>
<stop offset="1" stop-color="#93C1F9"/>
</linearGradient>
<linearGradient id="paint28_linear" x1="141.929" y1="96.992" x2="70.5271" y2="-84.8119" gradientUnits="userSpaceOnUse">
<stop/>
<stop offset="1" stop-color="white"/>
</linearGradient>
<linearGradient id="paint29_linear" x1="141.929" y1="96.992" x2="70.5271" y2="-84.8119" gradientUnits="userSpaceOnUse">
<stop stop-color="#97C3F9"/>
<stop offset="1" stop-color="#93C1F9"/>
</linearGradient>
<linearGradient id="paint30_linear" x1="28.169" y1="141.67" x2="-43.2327" y2="-40.1338" gradientUnits="userSpaceOnUse">
<stop/>
<stop offset="1" stop-color="white"/>
</linearGradient>
<linearGradient id="paint31_linear" x1="28.169" y1="141.67" x2="-43.2327" y2="-40.1338" gradientUnits="userSpaceOnUse">
<stop stop-color="#97C3F9"/>
<stop offset="1" stop-color="#93C1F9"/>
</linearGradient>
<linearGradient id="paint32_linear" x1="54.3734" y1="131.379" x2="-17.0283" y2="-50.4253" gradientUnits="userSpaceOnUse">
<stop/>
<stop offset="1" stop-color="white"/>
</linearGradient>
<linearGradient id="paint33_linear" x1="54.3734" y1="131.379" x2="-17.0283" y2="-50.4253" gradientUnits="userSpaceOnUse">
<stop stop-color="#97C3F9"/>
<stop offset="1" stop-color="#93C1F9"/>
</linearGradient>
<linearGradient id="paint34_linear" x1="80.5777" y1="121.087" x2="9.17609" y2="-60.7167" gradientUnits="userSpaceOnUse">
<stop/>
<stop offset="1" stop-color="white"/>
</linearGradient>
<linearGradient id="paint35_linear" x1="80.5777" y1="121.087" x2="9.17609" y2="-60.7167" gradientUnits="userSpaceOnUse">
<stop stop-color="#97C3F9"/>
<stop offset="1" stop-color="#93C1F9"/>
</linearGradient>
<linearGradient id="paint36_linear" x1="106.782" y1="110.796" x2="35.3804" y2="-71.0083" gradientUnits="userSpaceOnUse">
<stop/>
<stop offset="1" stop-color="white"/>
</linearGradient>
<linearGradient id="paint37_linear" x1="106.782" y1="110.796" x2="35.3804" y2="-71.0083" gradientUnits="userSpaceOnUse">
<stop stop-color="#97C3F9"/>
<stop offset="1" stop-color="#93C1F9"/>
</linearGradient>
<linearGradient id="paint38_linear" x1="132.986" y1="100.504" x2="61.5847" y2="-81.2999" gradientUnits="userSpaceOnUse">
<stop/>
<stop offset="1" stop-color="white"/>
</linearGradient>
<linearGradient id="paint39_linear" x1="132.986" y1="100.504" x2="61.5847" y2="-81.2999" gradientUnits="userSpaceOnUse">
<stop stop-color="#97C3F9"/>
<stop offset="1" stop-color="#93C1F9"/>
</linearGradient>
<linearGradient id="paint40_linear" x1="19.2266" y1="145.182" x2="-52.1751" y2="-36.6217" gradientUnits="userSpaceOnUse">
<stop/>
<stop offset="1" stop-color="white"/>
</linearGradient>
<linearGradient id="paint41_linear" x1="19.2266" y1="145.182" x2="-52.1751" y2="-36.6217" gradientUnits="userSpaceOnUse">
<stop stop-color="#97C3F9"/>
<stop offset="1" stop-color="#93C1F9"/>
</linearGradient>
<linearGradient id="paint42_linear" x1="45.431" y1="134.891" x2="-25.9706" y2="-46.9132" gradientUnits="userSpaceOnUse">
<stop/>
<stop offset="1" stop-color="white"/>
</linearGradient>
<linearGradient id="paint43_linear" x1="45.431" y1="134.891" x2="-25.9706" y2="-46.9132" gradientUnits="userSpaceOnUse">
<stop stop-color="#97C3F9"/>
<stop offset="1" stop-color="#93C1F9"/>
</linearGradient>
<linearGradient id="paint44_linear" x1="71.6353" y1="124.599" x2="0.233749" y2="-57.2045" gradientUnits="userSpaceOnUse">
<stop/>
<stop offset="1" stop-color="white"/>
</linearGradient>
<linearGradient id="paint45_linear" x1="71.6353" y1="124.599" x2="0.233749" y2="-57.2045" gradientUnits="userSpaceOnUse">
<stop stop-color="#97C3F9"/>
<stop offset="1" stop-color="#93C1F9"/>
</linearGradient>
<linearGradient id="paint46_linear" x1="97.8397" y1="114.308" x2="26.438" y2="-67.4962" gradientUnits="userSpaceOnUse">
<stop/>
<stop offset="1" stop-color="white"/>
</linearGradient>
<linearGradient id="paint47_linear" x1="97.8397" y1="114.308" x2="26.438" y2="-67.4962" gradientUnits="userSpaceOnUse">
<stop stop-color="#97C3F9"/>
<stop offset="1" stop-color="#93C1F9"/>
</linearGradient>
<linearGradient id="paint48_linear" x1="124.044" y1="104.016" x2="52.6424" y2="-77.7877" gradientUnits="userSpaceOnUse">
<stop/>
<stop offset="1" stop-color="white"/>
</linearGradient>
<linearGradient id="paint49_linear" x1="124.044" y1="104.016" x2="52.6424" y2="-77.7877" gradientUnits="userSpaceOnUse">
<stop stop-color="#97C3F9"/>
<stop offset="1" stop-color="#93C1F9"/>
</linearGradient>
</defs>
</svg>
