<svg width="108" height="15" viewBox="0 0 108 15" fill="none" xmlns="http://www.w3.org/2000/svg">
<path d="M2.89648 14H0.233887V0.696289H2.89648V6.02148H8.2124V0.696289H10.875V14H8.2124V8.68408H2.89648V14ZM26.3867 7.40381C26.3867 8.03467 26.3032 8.64388 26.1362 9.23145C25.9754 9.81283 25.7466 10.3602 25.4497 10.8735C25.1528 11.3807 24.7941 11.8446 24.3735 12.2651C23.953 12.6857 23.4891 13.0475 22.9819 13.3506C22.4748 13.6475 21.9274 13.8763 21.3398 14.0371C20.7523 14.2041 20.1431 14.2876 19.5122 14.2876C18.8813 14.2876 18.2721 14.2041 17.6846 14.0371C17.1032 13.8763 16.5558 13.6475 16.0425 13.3506C15.5353 13.0475 15.0715 12.6857 14.6509 12.2651C14.2303 11.8446 13.8685 11.3807 13.5654 10.8735C13.2686 10.3602 13.0366 9.81283 12.8696 9.23145C12.7088 8.64388 12.6284 8.03467 12.6284 7.40381C12.6284 6.77295 12.7088 6.16374 12.8696 5.57617C13.0366 4.98861 13.2686 4.44124 13.5654 3.93408C13.8685 3.42692 14.2303 2.96305 14.6509 2.54248C15.0715 2.12191 15.5353 1.76318 16.0425 1.46631C16.5558 1.16943 17.1032 0.940592 17.6846 0.779785C18.2721 0.612793 18.8813 0.529297 19.5122 0.529297C20.1431 0.529297 20.7523 0.612793 21.3398 0.779785C21.9274 0.940592 22.4748 1.16943 22.9819 1.46631C23.4891 1.76318 23.953 2.12191 24.3735 2.54248C24.7941 2.96305 25.1528 3.42692 25.4497 3.93408C25.7466 4.44124 25.9754 4.98861 26.1362 5.57617C26.3032 6.16374 26.3867 6.77295 26.3867 7.40381ZM23.7427 7.40381C23.7427 6.82243 23.6313 6.27507 23.4087 5.76172C23.186 5.24219 22.883 4.79378 22.4995 4.4165C22.1222 4.03304 21.6738 3.72998 21.1543 3.50732C20.641 3.28467 20.0936 3.17334 19.5122 3.17334C18.9246 3.17334 18.3742 3.28467 17.8608 3.50732C17.3475 3.72998 16.8991 4.03304 16.5156 4.4165C16.1322 4.79378 15.8291 5.24219 15.6064 5.76172C15.3838 6.27507 15.2725 6.82243 15.2725 7.40381C15.2725 7.98519 15.3838 8.53255 15.6064 9.0459C15.8291 9.55306 16.1322 9.99837 16.5156 10.3818C16.8991 10.7653 17.3475 11.0684 17.8608 11.291C18.3742 11.5137 18.9246 11.625 19.5122 11.625C20.0936 11.625 20.641 11.5137 21.1543 11.291C21.6738 11.0684 22.1222 10.7653 22.4995 10.3818C22.883 9.99837 23.186 9.55306 23.4087 9.0459C23.6313 8.53255 23.7427 7.98519 23.7427 7.40381ZM38.6328 8.68408C38.6328 9.42008 38.4937 10.1128 38.2153 10.7622C37.937 11.4054 37.5566 11.9683 37.0742 12.4507C36.5918 12.9269 36.0259 13.3042 35.3765 13.5825C34.7332 13.8608 34.0436 14 33.3076 14C32.5716 14 31.8789 13.8608 31.2295 13.5825C30.5863 13.3042 30.0234 12.9269 29.541 12.4507C29.0648 11.9683 28.6875 11.4054 28.4092 10.7622C28.1309 10.1128 27.9917 9.42008 27.9917 8.68408V0.696289H30.645V8.68408C30.645 9.04899 30.7131 9.39225 30.8491 9.71387C30.9914 10.0355 31.1831 10.3169 31.4243 10.5581C31.6655 10.7993 31.9469 10.991 32.2686 11.1333C32.5964 11.2694 32.9427 11.3374 33.3076 11.3374C33.6725 11.3374 34.0158 11.2694 34.3374 11.1333C34.6652 10.991 34.9497 10.7993 35.1909 10.5581C35.4321 10.3169 35.6208 10.0355 35.7568 9.71387C35.8991 9.39225 35.9702 9.04899 35.9702 8.68408V0.696289H38.6328V8.68408ZM40.1636 4.68555C40.1636 4.13509 40.2687 3.61865 40.479 3.13623C40.6893 2.65381 40.9738 2.23324 41.3325 1.87451C41.6974 1.5096 42.1211 1.22201 42.6035 1.01172C43.0859 0.801432 43.6024 0.696289 44.1528 0.696289H50.2573V3.35889H44.1528C43.9673 3.35889 43.7941 3.3929 43.6333 3.46094C43.4725 3.52897 43.3302 3.62484 43.2065 3.74854C43.089 3.86605 42.9963 4.00521 42.9282 4.16602C42.8602 4.32682 42.8262 4.5 42.8262 4.68555C42.8262 4.87109 42.8602 5.04736 42.9282 5.21436C42.9963 5.37516 43.089 5.51742 43.2065 5.64111C43.3302 5.75863 43.4725 5.8514 43.6333 5.91943C43.7941 5.98747 43.9673 6.02148 44.1528 6.02148H46.8154C47.3659 6.02148 47.8823 6.12663 48.3647 6.33691C48.8534 6.54102 49.277 6.82552 49.6357 7.19043C50.0007 7.54915 50.2852 7.97282 50.4893 8.46143C50.6995 8.94385 50.8047 9.46029 50.8047 10.0107C50.8047 10.5612 50.6995 11.0776 50.4893 11.5601C50.2852 12.0425 50.0007 12.4661 49.6357 12.8311C49.277 13.1898 48.8534 13.4743 48.3647 13.6846C47.8823 13.8949 47.3659 14 46.8154 14H40.9058V11.3374H46.8154C47.001 11.3374 47.1742 11.3034 47.335 11.2354C47.4958 11.1673 47.6349 11.0745 47.7524 10.957C47.8761 10.8333 47.972 10.6911 48.04 10.5303C48.1081 10.3695 48.1421 10.1963 48.1421 10.0107C48.1421 9.8252 48.1081 9.65202 48.04 9.49121C47.972 9.3304 47.8761 9.19124 47.7524 9.07373C47.6349 8.95003 47.4958 8.85417 47.335 8.78613C47.1742 8.7181 47.001 8.68408 46.8154 8.68408H44.1528C43.6024 8.68408 43.0859 8.57894 42.6035 8.36865C42.1211 8.15837 41.6974 7.87386 41.3325 7.51514C40.9738 7.15023 40.6893 6.72656 40.479 6.24414C40.2687 5.75553 40.1636 5.236 40.1636 4.68555Z" fill="white"/>
<path d="M61.6777 14H52.5581V0.696289H61.6777V3.35889H55.2207V6.02148H59.5903V8.68408H55.2207V11.3374H61.6777V14ZM62.6147 4.68555C62.6147 4.13509 62.7199 3.61865 62.9302 3.13623C63.1405 2.65381 63.425 2.23324 63.7837 1.87451C64.1486 1.5096 64.5723 1.22201 65.0547 1.01172C65.5371 0.801432 66.0535 0.696289 66.604 0.696289H72.7085V3.35889H66.604C66.4185 3.35889 66.2453 3.3929 66.0845 3.46094C65.9237 3.52897 65.7814 3.62484 65.6577 3.74854C65.5402 3.86605 65.4474 4.00521 65.3794 4.16602C65.3114 4.32682 65.2773 4.5 65.2773 4.68555C65.2773 4.87109 65.3114 5.04736 65.3794 5.21436C65.4474 5.37516 65.5402 5.51742 65.6577 5.64111C65.7814 5.75863 65.9237 5.8514 66.0845 5.91943C66.2453 5.98747 66.4185 6.02148 66.604 6.02148H69.2666C69.8171 6.02148 70.3335 6.12663 70.8159 6.33691C71.3045 6.54102 71.7282 6.82552 72.0869 7.19043C72.4518 7.54915 72.7363 7.97282 72.9404 8.46143C73.1507 8.94385 73.2559 9.46029 73.2559 10.0107C73.2559 10.5612 73.1507 11.0776 72.9404 11.5601C72.7363 12.0425 72.4518 12.4661 72.0869 12.8311C71.7282 13.1898 71.3045 13.4743 70.8159 13.6846C70.3335 13.8949 69.8171 14 69.2666 14H63.3569V11.3374H69.2666C69.4521 11.3374 69.6253 11.3034 69.7861 11.2354C69.9469 11.1673 70.0861 11.0745 70.2036 10.957C70.3273 10.8333 70.4232 10.6911 70.4912 10.5303C70.5592 10.3695 70.5933 10.1963 70.5933 10.0107C70.5933 9.8252 70.5592 9.65202 70.4912 9.49121C70.4232 9.3304 70.3273 9.19124 70.2036 9.07373C70.0861 8.95003 69.9469 8.85417 69.7861 8.78613C69.6253 8.7181 69.4521 8.68408 69.2666 8.68408H66.604C66.0535 8.68408 65.5371 8.57894 65.0547 8.36865C64.5723 8.15837 64.1486 7.87386 63.7837 7.51514C63.425 7.15023 63.1405 6.72656 62.9302 6.24414C62.7199 5.75553 62.6147 5.236 62.6147 4.68555ZM82.8394 8.68408V6.02148C82.8394 5.65658 82.7682 5.31331 82.626 4.9917C82.4899 4.6639 82.3013 4.37939 82.0601 4.13818C81.8188 3.89697 81.5343 3.70833 81.2065 3.57227C80.8849 3.43001 80.5417 3.35889 80.1768 3.35889C79.8118 3.35889 79.4655 3.43001 79.1377 3.57227C78.8161 3.70833 78.5347 3.89697 78.2935 4.13818C78.0522 4.37939 77.8605 4.6639 77.7183 4.9917C77.5822 5.31331 77.5142 5.65658 77.5142 6.02148V8.68408H82.8394ZM85.502 14H82.8394V11.3374H77.5142V14H74.8608V6.02148C74.8608 5.28548 75 4.59587 75.2783 3.95264C75.5566 3.30322 75.9339 2.7373 76.4102 2.25488C76.8926 1.77246 77.4554 1.39209 78.0986 1.11377C78.748 0.835449 79.4408 0.696289 80.1768 0.696289C80.9128 0.696289 81.6024 0.835449 82.2456 1.11377C82.895 1.39209 83.4609 1.77246 83.9434 2.25488C84.4258 2.7373 84.8062 3.30322 85.0845 3.95264C85.3628 4.59587 85.502 5.28548 85.502 6.02148V14ZM97.1265 14H87.812V0.696289H90.4746V11.3374H97.1265V14ZM107.638 14H98.5181V0.696289H107.638V3.35889H101.181V6.02148H105.55V8.68408H101.181V11.3374H107.638V14Z" fill="#FFC839"/>
</svg>
